<svg width="186" height="148" viewBox="0 0 186 148" fill="none" xmlns="http://www.w3.org/2000/svg">
<path d="M0 140.62C0.438317 139.906 0.652414 138.857 1.18342 138.232C2.93731 136.167 4.98471 134.242 6.90065 132.325L17.7348 121.469L44.6038 94.5308L105.805 33.1804L126.984 11.9503C130.196 8.73447 133.394 5.50259 136.613 2.29301C137.546 1.36187 138.549 0.566489 139.838 0.219145C141.465 -0.224434 143.202 0.0112851 144.652 0.872678C146.025 1.687 147.01 3.02593 147.379 4.58201C147.768 6.1248 147.524 7.75982 146.7 9.12042C145.961 10.3474 144.395 11.7697 143.336 12.8238L139.889 16.2783L125.872 30.3276L89.9887 66.2951C83.9335 72.3646 77.7726 78.716 71.6454 84.6704C73.0444 86.4231 74.9653 88.6938 76.234 90.4628C84.4725 101.746 89.8787 114.852 91.9946 128.673C92.3188 130.766 92.565 133.54 92.7621 135.674C95.6901 135.796 98.7607 135.745 101.705 135.744H115.272L157.395 135.745L172.69 135.74C175.294 135.74 178.094 135.658 180.662 135.849C182.819 136.008 184.789 137.621 185.539 139.607C185.685 139.972 185.839 140.435 186 140.787V142.93C184.98 145.059 184.472 146.687 182.013 147.548C180.067 148.23 174.498 147.938 172.168 147.937L161.666 147.936H127.42L46.9882 147.935L20.3702 147.936C15.9283 147.936 11.476 147.947 7.03418 147.936C5.8106 147.933 4.37927 147.797 3.27728 147.232C1.94676 146.55 1.13431 145.498 0.508254 144.168C0.339495 143.809 0.194792 143.316 0 143.01V140.62ZM20.6826 135.782C26.6393 135.737 32.5963 135.724 38.5532 135.743L66.6661 135.742H75.6967C77.1605 135.743 79.2203 135.681 80.6111 135.782C80.326 133.779 80.2005 131.752 79.8724 129.758C78.0984 118.977 73.983 108.571 67.779 99.5793C67.1637 98.6871 63.7423 93.8725 63.0038 93.3973C59.1137 97.112 55.1176 101.262 51.3058 105.084L29.9967 126.448C26.998 129.454 23.7339 132.873 20.6826 135.782Z" fill="black"/>
</svg>
